<?xml version="1.0" encoding="UTF-8" standalone="no"?>
<!-- Created with Inkscape (http://www.inkscape.org/) -->

<svg
   width="128"
   height="128"
   viewBox="0 0 33.866667 33.866667"
   version="1.1"
   id="svg5"
   inkscape:version="1.2 (dc2aedaf03, 2022-05-15)"
   sodipodi:docname="grama.svg"
   xmlns:inkscape="http://www.inkscape.org/namespaces/inkscape"
   xmlns:sodipodi="http://sodipodi.sourceforge.net/DTD/sodipodi-0.dtd"
   xmlns="http://www.w3.org/2000/svg"
   xmlns:svg="http://www.w3.org/2000/svg">
  <sodipodi:namedview
     id="namedview7"
     pagecolor="#ffffff"
     bordercolor="#999999"
     borderopacity="1"
     inkscape:showpageshadow="true"
     inkscape:pageopacity="0"
     inkscape:pagecheckerboard="true"
     inkscape:deskcolor="#d1d1d1"
     inkscape:document-units="px"
     showgrid="true"
     inkscape:zoom="2.7536986"
     inkscape:cx="63.187744"
     inkscape:cy="52.293305"
     inkscape:window-width="1920"
     inkscape:window-height="1009"
     inkscape:window-x="-8"
     inkscape:window-y="-8"
     inkscape:window-maximized="1"
     inkscape:current-layer="layer1">
    <inkscape:grid
       type="xygrid"
       id="grid326"
       spacingx="4.2333334"
       spacingy="4.2333334"
       empspacing="2"
       originx="0"
       originy="0" />
  </sodipodi:namedview>
  <defs
     id="defs2">
    <inkscape:path-effect
       effect="sketch"
       id="path-effect1331"
       is_visible="true"
       lpeversion="1"
       nbiter_approxstrokes="15"
       strokelength="10"
       strokelength_rdm="0;1"
       strokeoverlap="0.3"
       strokeoverlap_rdm="0.3;1"
       ends_tolerance="0.1;1"
       parallel_offset="12.5;1"
       tremble_size="5;1"
       tremble_frequency="0.01"
       nbtangents="5"
       tgt_places_rdmness="1;1"
       tgtscale="1"
       tgtlength="100"
       tgtlength_rdm="1;1" />
    <inkscape:path-effect
       effect="sketch"
       id="path-effect1327"
       is_visible="true"
       lpeversion="1"
       nbiter_approxstrokes="15"
       strokelength="10"
       strokelength_rdm="0;1"
       strokeoverlap="0.3"
       strokeoverlap_rdm="0.3;1"
       ends_tolerance="0.1;1"
       parallel_offset="12.5;1"
       tremble_size="5;1"
       tremble_frequency="0.01"
       nbtangents="5"
       tgt_places_rdmness="1;1"
       tgtscale="1"
       tgtlength="100"
       tgtlength_rdm="1;1" />
    <inkscape:path-effect
       effect="sketch"
       id="path-effect1323"
       is_visible="true"
       lpeversion="1"
       nbiter_approxstrokes="15"
       strokelength="10"
       strokelength_rdm="0;1"
       strokeoverlap="0.3"
       strokeoverlap_rdm="0.3;1"
       ends_tolerance="0.1;1"
       parallel_offset="12.5;1"
       tremble_size="5;1"
       tremble_frequency="0.01"
       nbtangents="5"
       tgt_places_rdmness="1;1"
       tgtscale="1"
       tgtlength="100"
       tgtlength_rdm="1;1" />
    <inkscape:path-effect
       effect="sketch"
       id="path-effect1313"
       is_visible="true"
       lpeversion="1"
       nbiter_approxstrokes="15"
       strokelength="10"
       strokelength_rdm="0;1"
       strokeoverlap="0.3"
       strokeoverlap_rdm="0.3;1"
       ends_tolerance="0.1;1"
       parallel_offset="12.5;1"
       tremble_size="5;1"
       tremble_frequency="0.01"
       nbtangents="5"
       tgt_places_rdmness="1;1"
       tgtscale="1"
       tgtlength="100"
       tgtlength_rdm="1;1" />
    <inkscape:path-effect
       effect="sketch"
       id="path-effect1309"
       is_visible="true"
       lpeversion="1"
       nbiter_approxstrokes="15"
       strokelength="10"
       strokelength_rdm="0;1"
       strokeoverlap="0.3"
       strokeoverlap_rdm="0.3;1"
       ends_tolerance="0.1;1"
       parallel_offset="12.5;1"
       tremble_size="5;1"
       tremble_frequency="0.01"
       nbtangents="5"
       tgt_places_rdmness="1;1"
       tgtscale="1"
       tgtlength="100"
       tgtlength_rdm="1;1" />
    <inkscape:path-effect
       effect="sketch"
       id="path-effect1305"
       is_visible="true"
       lpeversion="1"
       nbiter_approxstrokes="15"
       strokelength="10"
       strokelength_rdm="0;1"
       strokeoverlap="0.3"
       strokeoverlap_rdm="0.3;1"
       ends_tolerance="0.1;1"
       parallel_offset="12.5;1"
       tremble_size="5;1"
       tremble_frequency="0.01"
       nbtangents="5"
       tgt_places_rdmness="1;1"
       tgtscale="1"
       tgtlength="100"
       tgtlength_rdm="1;1" />
    <inkscape:path-effect
       effect="sketch"
       id="path-effect1295"
       is_visible="true"
       lpeversion="1"
       nbiter_approxstrokes="15"
       strokelength="10"
       strokelength_rdm="0;1"
       strokeoverlap="0.3"
       strokeoverlap_rdm="0.3;1"
       ends_tolerance="0.1;1"
       parallel_offset="12.5;1"
       tremble_size="5;1"
       tremble_frequency="0.01"
       nbtangents="5"
       tgt_places_rdmness="1;1"
       tgtscale="1"
       tgtlength="100"
       tgtlength_rdm="1;1" />
    <inkscape:path-effect
       effect="sketch"
       id="path-effect1289"
       is_visible="true"
       lpeversion="1"
       nbiter_approxstrokes="15"
       strokelength="10"
       strokelength_rdm="0;1"
       strokeoverlap="0.3"
       strokeoverlap_rdm="0.3;1"
       ends_tolerance="0.1;1"
       parallel_offset="12.5;1"
       tremble_size="5;1"
       tremble_frequency="0.01"
       nbtangents="5"
       tgt_places_rdmness="1;1"
       tgtscale="1"
       tgtlength="100"
       tgtlength_rdm="1;1" />
    <inkscape:path-effect
       effect="sketch"
       id="path-effect1279"
       is_visible="true"
       lpeversion="1"
       nbiter_approxstrokes="15"
       strokelength="5"
       strokelength_rdm="0;1"
       strokeoverlap="0.3"
       strokeoverlap_rdm="0.3;1"
       ends_tolerance="0.1;1"
       parallel_offset="10;1"
       tremble_size="5;1"
       tremble_frequency="0.01"
       nbtangents="5"
       tgt_places_rdmness="1;1"
       tgtscale="1"
       tgtlength="100"
       tgtlength_rdm="1;1" />
    <inkscape:path-effect
       effect="sketch"
       id="path-effect1253"
       is_visible="true"
       lpeversion="1"
       nbiter_approxstrokes="15"
       strokelength="10"
       strokelength_rdm="0;1"
       strokeoverlap="0.3"
       strokeoverlap_rdm="0.3;1"
       ends_tolerance="0.1;1"
       parallel_offset="12.5;1"
       tremble_size="5;1"
       tremble_frequency="0.01"
       nbtangents="5"
       tgt_places_rdmness="1;1"
       tgtscale="1"
       tgtlength="100"
       tgtlength_rdm="1;1" />
    <filter
       inkscape:collect="always"
       style="color-interpolation-filters:sRGB"
       id="filter1333"
       x="-0.011088471"
       y="-0.060668905"
       width="1.0221769"
       height="1.1213378">
      <feGaussianBlur
         inkscape:collect="always"
         stdDeviation="0.77243907"
         id="feGaussianBlur1335" />
    </filter>
    <filter
       inkscape:collect="always"
       style="color-interpolation-filters:sRGB"
       id="filter1337"
       x="-0.01110421"
       y="-0.060202044"
       width="1.0222084"
       height="1.1204041">
      <feGaussianBlur
         inkscape:collect="always"
         stdDeviation="0.77353545"
         id="feGaussianBlur1339" />
    </filter>
    <filter
       inkscape:collect="always"
       style="color-interpolation-filters:sRGB"
       id="filter1341"
       x="-0.01110421"
       y="-0.060202044"
       width="1.0222084"
       height="1.1204041">
      <feGaussianBlur
         inkscape:collect="always"
         stdDeviation="0.77353545"
         id="feGaussianBlur1343" />
    </filter>
    <filter
       inkscape:collect="always"
       style="color-interpolation-filters:sRGB"
       id="filter1345"
       x="-0.01110421"
       y="-0.060202044"
       width="1.0222084"
       height="1.1204041">
      <feGaussianBlur
         inkscape:collect="always"
         stdDeviation="0.77353545"
         id="feGaussianBlur1347" />
    </filter>
    <filter
       inkscape:collect="always"
       style="color-interpolation-filters:sRGB"
       id="filter1349"
       x="-0.01110421"
       y="-0.060202044"
       width="1.0222084"
       height="1.1204041">
      <feGaussianBlur
         inkscape:collect="always"
         stdDeviation="0.77353545"
         id="feGaussianBlur1351" />
    </filter>
  </defs>
  <g
     inkscape:label="Camada 1"
     inkscape:groupmode="layer"
     id="layer1">
    <rect
       style="fill:#37c837;stroke:none;stroke-width:0.264583;stroke-linecap:round;stroke-linejoin:bevel;paint-order:stroke fill markers;stop-color:#000000"
       id="rect931"
       width="33.866669"
       height="33.866669"
       x="0"
       y="0" />
    <path
       style="fill:#2ca02c;stroke:none;stroke-width:0.022164;stroke-linecap:round;stroke-linejoin:bevel;paint-order:stroke fill markers;stop-color:#000000;filter:url(#filter1333)"
       id="rect1197"
       width="2.8369999"
       height="2.8369999"
       x="15.514833"
       y="15.514833"
       inkscape:path-effect="#path-effect1279"
       d="m 20.411506,27.819454 c 0.844297,-0.0056 1.688513,-0.01118 2.532647,-0.01667 0.0072,0.82431 0.01425,1.648683 0.02125,2.473118 m -0.0433,-19.25952 c -0.0021,0.516317 -0.0041,1.032647 -0.0061,1.548991 -0.949345,-0.0031 -1.898608,-0.0062 -2.847791,-0.0093 -7.55e-4,-0.203596 -0.0015,-0.40719 -0.0023,-0.610782 m -8.028969,12.968976 c -0.157199,-5.36e-4 -0.314394,-0.0011 -0.471587,-0.0016 -0.0082,-0.948923 -0.01624,-1.897865 -0.02423,-2.846825 0.560383,-0.002 1.120799,-0.0039 1.681248,-0.0059 m 8.075819,2.478398 c 0.795941,0.0053 1.591821,0.01056 2.38764,0.01579 0.0079,0.883754 0.0157,1.767464 0.02344,2.65113 M 11.398648,11.566166 c -0.0033,0.540449 -0.0065,1.080911 -0.0097,1.621383 -0.951209,-0.0046 -1.9022917,-0.0092 -2.8532484,-0.01374 -9.951e-4,-0.178732 -0.00199,-0.357463 -0.00297,-0.536193 m 8.3058082,5.518961 c -0.247488,0.0014 -0.494967,0.0028 -0.742438,0.0041 -0.0058,-0.940425 -0.01157,-1.880997 -0.01716,-2.821716 0.472237,0.0025 0.944505,0.0049 1.416804,0.0073 m -5.541435,5.05132 c 0.799645,6.2e-5 1.599378,1.15e-4 2.399199,1.59e-4 -0.0049,0.862355 -0.0096,1.7247 -0.01429,2.587033 M 23.429999,11.04393 c 0.0019,0.455902 0.0037,0.911823 0.0055,1.36776 -0.941908,-0.0018 -1.883901,-0.0035 -2.825978,-0.0051 0.001,-0.264659 0.002,-0.529313 0.003,-0.793961 m -8.938291,2.481429 c -0.0865,3.26e-4 -0.172997,6.52e-4 -0.259496,9.77e-4 0.0051,-0.942135 0.01008,-1.884345 0.015,-2.826629 0.637331,0.0023 1.274625,0.0045 1.911883,0.0067 m 5.185,-1.9711199 c 0.914632,0.00847 1.829348,0.016868 2.744149,0.025211 -0.0028,0.7551754 -0.0056,1.5103114 -0.0084,2.2654064 m -5.996404,0.386678 c 0.0064,0.654057 0.01279,1.3081 0.01912,1.962128 -0.93649,0.0027 -1.873074,0.0053 -2.809752,0.008 6.55e-4,-0.06864 0.0013,-0.137273 0.002,-0.20591 M 8.6115706,7.9612607 c -0.3388493,0.00179 -0.6777114,0.00357 -1.0165864,0.00534 0.00894,-0.9407781 0.017785,-1.8816403 0.026532,-2.822586 0.3823946,0.00189 0.7647735,0.00377 1.1471369,0.00563 M 8.1126655,19.889852 c 0.8675223,0.0016 1.7350088,0.0033 2.6024605,0.005 0.006,0.807301 0.01205,1.614658 0.01802,2.422073 m 7.267045,-2.94362 c -0.0043,0.563415 -0.0085,1.126826 -0.01278,1.690233 -0.952868,0.0092 -1.905703,0.01843 -2.858505,0.02762 -0.0012,-0.161448 -0.0025,-0.322896 -0.0037,-0.484345 m 1.667321,-9.091013 c -0.204305,-0.0011 -0.408613,-0.0022 -0.612924,-0.0033 0.0011,-0.950816 0.0021,-1.9015822 0.003,-2.852298 0.516977,-0.00276 1.033934,-0.0055 1.550872,-0.00823 M 15.5149,16.686765 c 0.812686,0.0046 1.625428,0.0092 2.438226,0.01371 -0.0027,0.855995 -0.0054,1.711971 -0.008,2.567928 m -0.296333,-3.981246 c 0.0022,0.555112 0.0043,1.110187 0.0064,1.665226 -0.942025,0.0038 -1.884095,0.0075 -2.826208,0.01105 6.32e-4,-0.167541 0.0013,-0.335085 0.0019,-0.502632 m 0.506204,-4.007358 c -0.318148,0.0015 -0.636296,0.003 -0.954442,0.0046 5.94e-4,-0.941156 0.0012,-1.882308 0.0018,-2.8234553 0.402911,0.00192 0.805822,0.00385 1.208735,0.00578 m 4.328035,-3.4223404 c 0.805889,0.00145 1.611809,0.00286 2.417759,0.00423 0.001,0.8631285 0.0021,1.7262153 0.0031,2.5892607 M 6.3597138,23.429452 c 0.00336,0.492741 0.00672,0.98549 0.010083,1.478247 -0.9392512,-0.0042 -1.8785138,-0.0083 -2.8177871,-0.01247 0.00153,-0.227042 0.00306,-0.454082 0.00458,-0.681121 m 8.6090107,-7.541986 c -0.22413,-5.26e-4 -0.448262,-0.0011 -0.672396,-0.0016 0.0025,-0.947886 0.005,-1.895779 0.0074,-2.843678 0.497544,-0.0012 0.995077,-0.0023 1.492601,-0.0035 m 6.142789,3.957019 c 0.775759,-0.0077 1.551573,-0.01527 2.327442,-0.02276 -0.005,0.877887 -0.0099,1.755895 -0.01478,2.634023 m 0.653207,-1.773688 c 3e-4,0.547377 6.01e-4,1.094732 9.03e-4,1.642066 -0.945147,-0.0034 -1.890292,-0.0069 -2.835434,-0.01038 9.5e-5,-0.172332 1.9e-4,-0.344667 2.85e-4,-0.517003 M 5.4440558,18.898687 c -0.3030491,-6.37e-4 -0.6060909,-0.0013 -0.9091256,-0.0019 -0.00343,-0.947649 -0.00678,-1.895279 -0.01007,-2.84289 0.4176032,-8.61e-4 0.8352202,-0.0017 1.2528508,-0.0026 M 7.9505389,5.6321069 c 0.9072983,0.00775 1.8145365,0.015484 2.7217151,0.023197 0.0044,0.7711922 0.0087,1.542371 0.01301,2.313537 m 5.08841,9.9008857 c -0.0024,0.629255 -0.0048,1.258524 -0.0072,1.887809 -0.949276,-2.49e-4 -1.898544,-4.65e-4 -2.847804,-6.46e-4 -3.48e-4,-0.09157 -6.96e-4,-0.183133 -0.001,-0.274699 m 5.462259,6.408645 c -0.264131,-0.0016 -0.528263,-0.0032 -0.792397,-0.0048 0.0027,-0.951329 0.0054,-1.902612 0.0081,-2.85385 0.457395,-0.0027 0.914786,-0.0054 1.372172,-0.008 M 11.60275,22.272684 c 0.888857,0.0034 1.777765,0.0068 2.666723,0.01016 -0.0056,0.774044 -0.01123,1.548058 -0.0168,2.322041 m 3.122593,0.615277 c -4.3e-5,0.5513 -7.3e-5,1.102563 -8.9e-5,1.653791 -0.945696,0.0036 -1.891354,0.0072 -2.836973,0.01061 8e-6,-0.171264 1.8e-5,-0.342532 2.9e-5,-0.513804 M 9.4631894,12.453331 c -0.2495116,-0.0016 -0.4990183,-0.0032 -0.7485201,-0.0048 -0.0041,-0.951744 -0.00813,-1.903383 -0.012085,-2.8549178 0.4705976,-0.00293 0.941213,-0.00584 1.4118462,-0.00872 M 9.0930327,24.69461 c 0.8444925,0.0075 1.6890373,0.01502 2.5336333,0.02243 -0.002,0.827174 -0.004,1.65429 -0.0059,2.481349 M 30.656542,13.150021 c 0.0011,0.536948 0.0022,1.073893 0.0034,1.610835 -0.943711,0.0016 -1.887457,0.0032 -2.831237,0.0048 3.69e-4,-0.184661 7.37e-4,-0.369323 0.0011,-0.553984 m -2.681141,9.022951 c -0.228566,-3.5e-5 -0.457137,-6.8e-5 -0.685714,-9.8e-5 0.0037,-0.94579 0.0073,-1.89153 0.01085,-2.837219 0.493349,-1.2e-5 0.986671,-1.1e-5 1.479967,4e-6 m -4.218127,-5.273144 c 0.887443,-0.0019 1.774924,-0.0039 2.662442,-0.0058 -0.0024,0.774716 -0.0048,1.549451 -0.0072,2.324204 M 27.726921,5.417989 c 0.0056,0.6404611 0.01115,1.2809384 0.01666,1.921432 -0.937516,0.0016 -1.875125,0.00324 -2.812824,0.00491 6.88e-4,-0.081444 0.0014,-0.1628876 0.0021,-0.244331 M 13.316532,31.008118 c -0.36178,0.0013 -0.72355,0.0025 -1.085311,0.0038 -0.002,-0.942373 -0.004,-1.884786 -0.0059,-2.827238 0.35929,0.0012 0.71859,0.0024 1.077899,0.0037 M 14.850786,6.569428 c 0.847211,-0.00794 1.694492,-0.015807 2.541841,-0.023592 -0.0068,0.80478 -0.01351,1.6096314 -0.02017,2.4145538 M 16.750329,25.511313 c 0.0028,0.490184 0.0056,0.980365 0.0084,1.470542 -0.940352,-0.0018 -1.88085,-0.0036 -2.821493,-0.0054 0.0012,-0.230335 0.0024,-0.46067 0.0036,-0.691007 m 12.595871,3.082035 c -0.260601,9.23e-4 -0.521207,0.0018 -0.781817,0.0028 0.0068,-0.942354 0.01347,-1.88473 0.02012,-2.827127 0.461735,0.0016 0.923458,0.0032 1.385166,0.0047 M 14.979777,1.9211038 c 0.798498,0.00162 1.597037,0.00327 2.395616,0.00493 8.9e-5,0.8699781 2.25e-4,1.7399813 4.1e-4,2.6100097 m 5.077512,25.9624351 c -0.0036,0.444946 -0.0071,0.889876 -0.0106,1.334792 -0.953136,0.0034 -1.906121,0.0067 -2.858958,0.01002 -0.0021,-0.276722 -0.0042,-0.553449 -0.0063,-0.830183 M 20.741305,20.50019 c -0.167539,-0.0013 -0.335075,-0.0027 -0.502608,-0.004 -0.005,-0.953231 -0.0099,-1.906339 -0.01465,-2.859322 0.551544,-0.0043 1.103124,-0.0085 1.654739,-0.01274 m 4.610731,9.492275 c 0.827024,-3.24e-4 1.654069,-6.37e-4 2.481134,-9.4e-4 -0.0021,0.837264 -0.0041,1.674539 -0.0061,2.511824 m -1.667492,-6.169777 c -0.004,0.489202 -0.008,0.97838 -0.012,1.467533 -0.953418,0.0069 -1.906757,0.01361 -2.86002,0.02027 -0.0019,-0.233705 -0.0038,-0.467415 -0.0057,-0.701132 m -9.126356,0.592011 c -0.148738,-3.46e-4 -0.297474,-6.9e-4 -0.446207,-0.001 -0.0082,-0.94787 -0.01637,-1.895698 -0.0244,-2.843486 0.568682,-0.0013 1.137404,-0.0026 1.706165,-0.0038 m 34.860077,-3.636018 h -69.53125 M 15.514833,22.03913 V 10.32038 m 0,22.157625 V 2.0092553 M -66.217135,15.514833 H 100.97036 m -33.488433,2.837 h -98.4375"
       sodipodi:type="rect" />
    <path
       style="fill:#5fd35f;stroke:none;stroke-width:0.022164;stroke-linecap:round;stroke-linejoin:bevel;paint-order:stroke fill markers;stop-color:#000000;filter:url(#filter1349)"
       id="path1299"
       width="2.8369999"
       height="2.8369999"
       x="-1.4185008"
       y="-1.4185009"
       inkscape:path-effect="#path-effect1309"
       d="m 4.5660184,13.093184 c 0.7313994,-0.0024 1.462783,-0.0049 2.1941508,-0.0073 0.00413,0.94252 0.00824,1.885058 0.012318,2.827616 -0.9415872,-0.0031 -1.883201,-0.0062 -2.8248414,-0.0093 0.00304,-0.716132 0.00606,-1.432254 0.00907,-2.148365 M 5.1615196,-6.0424553 c -0.090662,-1.52e-4 -0.1813247,-3.038e-4 -0.2719868,-4.556e-4 -0.00188,-0.9472528 -0.00374,-1.8944944 -0.00558,-2.8417248 0.9438252,-0.00156 1.8876696,-0.00312 2.8315334,-0.00466 -0.0018,0.9441253 -0.00359,1.8882617 -0.00535,2.8324093 -0.4066084,-6.519e-4 -0.8132134,-0.0013 -1.2198148,-0.00195 M -4.3832879,6.5502319 c 0.6290918,-0.00109 1.2581945,-0.00217 1.8873082,-0.00326 -0.00407,0.9440368 -0.00811,1.8880704 -0.012128,2.8321006 -0.9496849,-0.00164 -1.8993453,-0.00328 -2.8489814,-0.00492 -0.0034,-0.8115765 -0.00678,-1.6231555 -0.010148,-2.4347369 M 5.6127949,12.70951 c 0.00403,-0.87824 0.00804,-1.756492 0.012028,-2.634756 0.9499499,0.0032 1.8998792,0.0063 2.8497879,0.0094 0.00424,0.948794 0.00846,1.897574 0.012665,2.846342 -0.5583078,0.0018 -1.1166228,0.0037 -1.674945,0.0055 M -8.7153059,-7.5708693 c 0.661087,-0.00163 1.3221901,-0.00326 1.9833093,-0.00488 -0.0028,0.9433502 -0.00556,1.886708 -0.0083,2.8300733 -0.9483992,-0.0023 -1.8967656,-0.0046 -2.8450993,-0.00688 -0.0022,-0.780802 -0.00437,-1.561599 -0.00652,-2.3423908 m 9.43428335,7.47832297 c -0.0689522,1.933e-4 -0.1379042,3.8642e-4 -0.20685605,5.7934e-4 -0.00295,-0.94301248 -0.00587,-1.88606121 -0.008757,-2.82914621 0.94277877,0.00258 1.88558881,0.00513 2.82843001,0.00764 -0.00283,0.9481759 -0.00562,1.89631567 -0.00838,2.84441936 -0.4288455,0.001102 -0.8576845,0.002197 -1.2865173,0.003284 m -6.1646517,4.968231 c 0.8883358,3.48e-5 1.7766982,6.62e-5 2.6650871,9.44e-5 -0.00271,0.9456965 -0.0054,1.8913893 -0.00805,2.8370783 -0.948321,2.24e-5 -1.8966121,4.11e-5 -2.8448736,5.6e-5 -0.00151,-0.5510455 -0.00301,-1.1020924 -0.00451,-1.6531405 M 5.2432005,-5.632292 c -0.195423,-1.912e-4 -0.390847,-3.816e-4 -0.5862719,-5.712e-4 0.00191,-0.946582 0.0038,-1.8931448 0.00567,-2.8396884 0.9475342,-8.77e-4 1.8950463,-0.00173 2.8425364,-0.00257 0.00182,0.944828 0.00363,1.8896752 0.0054,2.8345416 -0.2999472,-2.543e-4 -0.5998966,-5.067e-4 -0.8998483,-7.571e-4 m -13.673595,-2.2029229 c 0.7784549,0.00146 1.5568967,0.0029 2.3353254,0.00433 0.00252,0.9474071 0.00501,1.8947945 0.00749,2.8421621 -0.9431885,0.0017 -1.8863964,0.00338 -2.8296235,0.00504 0.00172,-0.6644681 0.00342,-1.3289459 0.00512,-1.9934335 m 10.2920452,1.3343969 c -0.2563564,0.00118 -0.5127113,0.00236 -0.7690646,0.00353 -0.00187,-0.941316 -0.00372,-1.8826471 -0.00555,-2.8239931 0.9438371,0.00432 1.8876957,0.00863 2.8315755,0.012917 -0.00179,0.9499574 -0.00355,1.8998999 -0.0053,2.8498277 -0.2409303,0.00108 -0.4818591,0.00217 -0.7227867,0.00325 m -9.3814026,-2.3942844 c 0.688589,9.903e-4 1.377165,0.00198 2.0657278,0.00296 0.00462,0.9470206 0.00921,1.8940324 0.01378,2.8410354 -0.9410983,0.00134 -1.8822214,0.00266 -2.8233692,0.00398 0.00362,-0.7557279 0.00722,-1.5114615 0.010801,-2.2672006 M -10.77396,-11.374444 c -0.06478,1.71e-4 -0.129563,3.41e-4 -0.194344,5.11e-4 0.0045,-0.943195 0.009,-1.886411 0.01343,-2.829649 0.950119,0.0024 1.9002117,0.0048 2.8502794,0.0072 0.0044,0.948052 0.00878,1.896084 0.013127,2.844093 -0.429258,0.0011 -0.8585213,0.0021 -1.2877899,0.0032 m 0.3671425,16.5907377 c 0.6669006,6.23e-4 1.3337961,0.00126 2.0006864,0.0019 0.00357,0.9465819 0.00713,1.893184 0.010674,2.8398064 -0.942119,9.558e-4 -1.8842483,0.00193 -2.8263879,0.00293 0.0029,-0.7767974 0.00579,-1.553581 0.00868,-2.3303508 m 7.8131645,0.0376 c -0.058544,2.848e-4 -0.117088,5.695e-4 -0.1756319,8.543e-4 -0.00362,-0.9410496 -0.00723,-1.8821031 -0.01083,-2.8231602 0.9420652,0.00461 1.88413911,0.00922 2.82622171,0.013817 -0.003584,0.9502688 -0.007159,1.900534 -0.0107262,2.8507957 -0.43966479,0.00213 -0.87932773,0.00426 -1.31898885,0.00638 M 0.39410508,-10.617747 c 0.61526432,-0.0017 1.23052252,-0.0034 1.84577442,-0.005 5.349e-4,0.9430986 0.00106,1.8862104 0.00156,2.8293357 -0.9451611,-0.00254 -1.89033689,-0.00507 -2.83552728,-0.00758 4.1653e-4,-0.8292953 8.2186e-4,-1.6585804 0.001216,-2.4878557 M -1.3208613,2.8313799 c -0.00153,-0.9062491 -0.00303,-1.812504 -0.00453,-2.71876463 0.94411541,0.002648 1.8882501,0.005289 2.832404,0.007924 -0.00151,0.94830183 -0.00301,1.89659753 -0.00448,2.84488703 -0.53402625,0.00148 -1.06804638,0.00296 -1.60206041,0.00443 M -2.9535375,-4.3286364 c 0.8600702,0.00178 1.7201317,0.00353 2.58018441,0.00526 0.001828,0.9475741 0.003645,1.8951206 0.005452,2.8426396 -0.94385994,0.00185 -1.88773044,0.00368 -2.83161144,0.00547 0.0011,-0.5824972 0.0022,-1.1650049 0.00329,-1.7475231 m 1.2272928,-2.4876004 c -0.3893188,9.279e-4 -0.7786372,0.00186 -1.1679553,0.00278 2.974e-4,-0.943412 5.97e-4,-1.8868226 8.989e-4,-2.8302317 0.9459685,0.00226 1.8919393,0.00452 2.83791229,0.00678 3.064e-4,0.9479273 6.1508e-4,1.8958563 9.2605e-4,2.8437869 -0.10685777,2.559e-4 -0.21371552,5.118e-4 -0.32057323,7.677e-4 M 5.1128547,-12.961461 c 0.8458353,7.6e-4 1.6916799,0.0015 2.5375339,0.0022 5.381e-4,0.946495 0.00109,1.892977 0.00165,2.839446 -0.945105,8.04e-4 -1.8901983,0.0016 -2.8352798,0.0024 3.692e-4,-0.596136 7.43e-4,-1.192276 0.00112,-1.788422 M -14.551317,9.953633 c -0.224482,-5.015e-4 -0.448965,-0.001 -0.673448,-0.0015 0.0032,-0.947769 0.0064,-1.8955316 0.0096,-2.8432876 0.948874,-0.00209 1.897746,-0.00417 2.846616,-0.00625 0.0032,0.9435901 0.0064,1.8871866 0.0096,2.8307895 -0.270168,-5.916e-4 -0.540337,-0.00118 -0.810507,-0.00177 m 7.6768177,-14.5923094 c 0.7487097,-8.763e-4 1.4974135,-0.00175 2.2461116,-0.00263 0.00124,0.9445547 0.00247,1.889107 0.0037,2.833657 -0.9444438,-0.00112 -1.8888968,-0.00224 -2.833359,-0.00336 8.842e-4,-0.6951068 0.00176,-1.3902149 0.00264,-2.0853243 M 4.0404169,5.0903248 C 3.789054,5.0890912 3.5376926,5.08786 3.2863327,5.0866312 c -0.00272,-0.9503031 -0.00542,-1.9005726 -0.0081,-2.8508088 0.9429877,-0.00457 1.885997,-0.00911 2.8290277,-0.013608 -0.00264,0.9411638 -0.00525,1.8823608 -0.00784,2.8235911 -0.2463687,-0.00115 -0.492736,-0.0023 -0.7391018,-0.00345 M 4.7925395,-0.10992473 c 0.8351845,-0.001468 1.6703688,-0.002947 2.5055528,-0.004439 2.58e-4,0.94397727 5.158e-4,1.88793929 7.732e-4,2.83188589 -0.9454092,-0.00172 -1.8908187,-0.00346 -2.8362285,-0.00521 1.648e-4,-0.6081676 3.295e-4,-1.2163416 4.941e-4,-1.82452188 M -13.640041,0.9302072 c -0.340847,-3.5882e-4 -0.681691,-7.1701e-4 -1.022533,-0.001075 -0.0017,-0.94666051 -0.0034,-1.89331622 -0.0051,-2.83996712 0.943977,-9.843e-4 1.887971,-0.00196 2.831982,-0.00294 -0.0017,0.94469188 -0.0033,1.88938854 -0.0049,2.83408995 -0.156379,-1.5935e-4 -0.312758,-3.1856e-4 -0.469136,-4.7764e-4 m 1.282018,-13.68595331 c 0.765577,0.0033 1.5311438,0.0066 2.2966987,0.0098 0.00274,0.949724 0.00547,1.899443 0.00817,2.8491579 -0.9429598,0.00405 -1.8859368,0.00809 -2.8289318,0.012133 0.0019,-0.6757592 0.0038,-1.3515192 0.0057,-2.0272822 m 6.817367,14.7665527 c -0.2186342,-3.41e-5 -0.4372683,-6.78e-5 -0.6559023,-1.01e-4 -0.00181,-0.9458107 -0.00361,-1.89161347 -0.00542,-2.83740834 0.9438634,-1.2825e-4 1.8877296,-2.486e-4 2.8315985,-3.6105e-4 -0.0018,0.94555417 -0.00359,1.89111619 -0.00539,2.83668619 -0.278644,-2.84e-5 -0.5572878,-5.62e-5 -0.8359313,-8.33e-5 m 5.0126158,4.3712703 c 0.6523038,-0.00196 1.3046055,-0.00391 1.9569049,-0.00586 0.00136,0.94284 0.00272,1.8856928 0.00407,2.8285586 -0.9443157,-0.0028 -1.8886361,-0.0056 -2.83296101,-0.0084 0.001122,-0.7929586 0.00224,-1.5859079 0.003356,-2.3788485 M -7.3384976,8.8403931 c -0.084283,1.608e-4 -0.1685666,3.214e-4 -0.2528498,4.819e-4 -0.00351,-0.9438589 -0.007,-1.8877302 -0.010478,-2.8316141 0.9421879,0.00178 1.8843898,0.00355 2.8266056,0.00531 -0.00345,0.9474245 -0.00689,1.8948367 -0.010311,2.8422364 -0.4138544,7.558e-4 -0.8277061,0.00151 -1.2415552,0.00226 m 4.878216,-0.7462997 c 0.71253258,0.00142 1.42507072,0.00282 2.13761439,0.00421 -2.216e-5,0.9475087 -3.457e-5,1.8949899 -3.722e-5,2.8424429 -0.94566928,0.0018 -1.89132881,0.0035 -2.83697857,0.0053 1.3e-5,-0.728104 3.18e-5,-1.4562242 5.65e-5,-2.184361 M -8.6240292,-4.9682522 c -0.1114285,-3.604e-4 -0.2228568,-7.205e-4 -0.3342848,-0.00108 -0.00206,-0.9487263 -0.00411,-1.8974263 -0.00614,-2.8461002 0.9436368,-0.00301 1.887291,-0.00599 2.8309624,-0.00894 -0.002,0.9427117 -0.00397,1.8854494 -0.00593,2.8282132 -0.3859467,-0.00118 -0.7718906,-0.00236 -1.1578316,-0.00353 M 34.455327,1.418499 h -69.53125 m 33.6574222,3.6872969 v -11.71875 m 0,22.1576251 v -30.46875 M -83.15047,-1.4185009 H 84.03703 M 50.548593,1.418499 h -98.4375"
       sodipodi:type="rect" />
    <path
       style="fill:#5fd35f;stroke:none;stroke-width:0.022164;stroke-linecap:round;stroke-linejoin:bevel;paint-order:stroke fill markers;stop-color:#000000;filter:url(#filter1337)"
       id="path1301"
       width="2.8369999"
       height="2.8369999"
       x="32.448166"
       y="-1.4184999"
       inkscape:path-effect="#path-effect1313"
       d="m 38.432685,13.093185 c 0.7314,-0.0024 1.462783,-0.0049 2.194151,-0.0073 0.0041,0.942519 0.0082,1.885058 0.01232,2.827616 -0.941587,-0.0031 -1.883201,-0.0062 -2.824841,-0.0093 0.003,-0.716132 0.0061,-1.432254 0.0091,-2.148365 m 1.204801,-19.7983163 c -0.09066,-1.52e-4 -0.181324,-3.039e-4 -0.271986,-4.557e-4 -0.0019,-0.9472528 -0.0037,-1.8944944 -0.0056,-2.8417247 0.943825,-0.00156 1.88767,-0.00312 2.831534,-0.00466 -0.0018,0.9441253 -0.0036,1.8882618 -0.0054,2.8324094 -0.406609,-6.52e-4 -0.813214,-0.0013 -1.219815,-0.00195 M 29.483379,6.5502329 c 0.629092,-0.00109 1.258194,-0.00217 1.887308,-0.00326 -0.0041,0.9440369 -0.0081,1.8880704 -0.01213,2.8321007 -0.949685,-0.00164 -1.899346,-0.00328 -2.848982,-0.00492 -0.0034,-0.8115765 -0.0068,-1.6231555 -0.01015,-2.434737 m 10.980033,5.770096 c 0.004,-0.87824 0.008,-1.756492 0.01203,-2.634756 0.94995,0.0032 1.899879,0.0063 2.849788,0.0094 0.0042,0.948794 0.0085,1.897574 0.01267,2.846342 -0.558308,0.0018 -1.116623,0.0037 -1.674945,0.0055 M 25.151361,-7.5708683 c 0.661087,-0.00163 1.32219,-0.00326 1.983309,-0.00488 -0.0028,0.9433501 -0.0056,1.8867079 -0.0083,2.8300732 -0.948399,-0.0023 -1.896765,-0.0046 -2.845099,-0.00688 -0.0022,-0.780802 -0.0044,-1.5615989 -0.0065,-2.3423908 m 9.434283,7.47832302 c -0.06895,1.9331e-4 -0.137904,3.8642e-4 -0.206856,5.7934e-4 -0.0029,-0.94301247 -0.0059,-1.88606126 -0.0088,-2.82914626 0.942779,0.00258 1.885589,0.00513 2.82843,0.00764 -0.0028,0.948176 -0.0056,1.89631572 -0.0084,2.84441942 -0.428845,0.001102 -0.857684,0.002197 -1.286517,0.003284 M 28.862299,5.3783754 c 0.888336,3.48e-5 1.776698,6.63e-5 2.665087,9.44e-5 -0.0027,0.9456966 -0.0054,1.8913893 -0.0081,2.8370784 -0.948321,2.24e-5 -1.896612,4.11e-5 -2.844874,5.6e-5 -0.0015,-0.5510456 -0.003,-1.1020924 -0.0045,-1.6531405 M 39.109867,-5.6322911 c -0.195423,-1.912e-4 -0.390847,-3.816e-4 -0.586272,-5.711e-4 0.0019,-0.946582 0.0038,-1.8931449 0.0057,-2.8396885 0.947534,-8.77e-4 1.895046,-0.00173 2.842536,-0.00257 0.0018,0.9448281 0.0036,1.8896753 0.0054,2.8345416 -0.299947,-2.543e-4 -0.599897,-5.066e-4 -0.899848,-7.571e-4 M 26.803762,-7.8442624 c 0.778454,0.00146 1.556896,0.0029 2.335325,0.00433 0.0025,0.9474072 0.005,1.8947945 0.0075,2.8421621 -0.943188,0.0017 -1.886396,0.00338 -2.829623,0.00504 0.0017,-0.6644681 0.0034,-1.328946 0.0051,-1.9934335 m 10.292045,1.3343968 c -0.256357,0.00118 -0.512711,0.00236 -0.769065,0.00353 -0.0019,-0.941316 -0.0037,-1.882647 -0.0056,-2.8239931 0.943837,0.00432 1.887695,0.00863 2.831575,0.012917 -0.0018,0.9499574 -0.0036,1.8999 -0.0053,2.8498278 -0.240931,0.00108 -0.481859,0.00217 -0.722787,0.00325 m -9.381403,-2.3942844 c 0.688589,9.903e-4 1.377165,0.00198 2.065728,0.00296 0.0046,0.9470206 0.0092,1.8940324 0.01378,2.8410355 -0.941098,0.00134 -1.882222,0.00266 -2.823369,0.00398 0.0036,-0.755728 0.0072,-1.5114615 0.0108,-2.2672006 m -4.735829,-3.9547012 c -0.06478,1.71e-4 -0.129563,3.41e-4 -0.194344,5.11e-4 0.0045,-0.943195 0.009,-1.886411 0.01343,-2.829649 0.950118,0.0024 1.900211,0.0048 2.850279,0.0072 0.0044,0.948052 0.0088,1.896083 0.01313,2.844093 -0.429258,0.0011 -0.858521,0.0021 -1.28779,0.0032 m 0.367143,16.5907377 c 0.6669,6.229e-4 1.333796,0.00126 2.000686,0.0019 0.0036,0.9465818 0.0071,1.8931839 0.01067,2.8398064 -0.942119,9.558e-4 -1.884248,0.00193 -2.826388,0.00293 0.0029,-0.7767974 0.0058,-1.553581 0.0087,-2.3303509 m 7.813164,0.0376 c -0.05854,2.847e-4 -0.117088,5.695e-4 -0.175632,8.542e-4 -0.0036,-0.9410496 -0.0072,-1.882103 -0.01083,-2.8231602 0.942065,0.00461 1.884139,0.00922 2.826221,0.013817 -0.0036,0.9502688 -0.0072,1.900534 -0.01073,2.8507957 -0.439665,0.00213 -0.879328,0.00426 -1.318989,0.00638 m 1.089357,-16.4599847 c 0.615264,-0.0017 1.230522,-0.0034 1.845774,-0.005 5.35e-4,0.9430985 0.0011,1.8862104 0.0016,2.8293356 -0.945161,-0.00254 -1.890337,-0.00507 -2.835527,-0.00758 4.16e-4,-0.8292953 8.21e-4,-1.6585804 0.0012,-2.4878556 M 32.545805,2.8313809 c -0.0015,-0.9062491 -0.003,-1.812504 -0.0045,-2.71876468 0.944115,0.002648 1.88825,0.005289 2.832404,0.007924 -0.0015,0.94830188 -0.003,1.89659748 -0.0045,2.84488708 -0.534026,0.00148 -1.068046,0.00296 -1.60206,0.00443 m -2.854014,-7.2984938 c 0.86007,0.00178 1.720132,0.00353 2.580185,0.00526 0.0018,0.9475741 0.0036,1.8951207 0.0055,2.8426396 -0.94386,0.00185 -1.88773,0.00368 -2.831611,0.00547 0.0011,-0.5824972 0.0022,-1.1650049 0.0033,-1.747523 m 1.227293,-2.4876005 c -0.389319,9.28e-4 -0.778638,0.00186 -1.167956,0.00278 2.98e-4,-0.9434121 5.97e-4,-1.8868227 8.99e-4,-2.8302317 0.945969,0.00226 1.891939,0.00452 2.837912,0.00678 3.07e-4,0.9479274 6.16e-4,1.8958563 9.27e-4,2.8437869 -0.106858,2.559e-4 -0.213716,5.118e-4 -0.320574,7.678e-4 m 5.730572,-7.2749626 c 0.845836,7.6e-4 1.69168,0.0015 2.537534,0.0022 5.38e-4,0.946494 0.0011,1.892977 0.0016,2.839446 -0.945105,8.03e-4 -1.890198,0.0016 -2.83528,0.0024 3.69e-4,-0.596136 7.43e-4,-1.192276 0.0011,-1.788422 M 19.31535,9.9536339 c -0.224483,-5.015e-4 -0.448965,-0.001 -0.673448,-0.0015 0.0032,-0.9477691 0.0064,-1.8955316 0.0096,-2.8432877 0.948875,-0.00209 1.897747,-0.00417 2.846616,-0.00625 0.0032,0.9435901 0.0064,1.8871867 0.0096,2.8307896 -0.270169,-5.916e-4 -0.540338,-0.00118 -0.810507,-0.00177 M 28.37406,-4.6606992 c 0.74871,-8.762e-4 1.497414,-0.00175 2.246112,-0.00263 0.0012,0.9445547 0.0025,1.8891071 0.0037,2.8336571 -0.944444,-0.00112 -1.888897,-0.00224 -2.833359,-0.00336 8.84e-4,-0.6951068 0.0018,-1.3902149 0.0026,-2.0853243 m 10.113937,9.0086824 c -0.251363,-0.00123 -0.502725,-0.00246 -0.754085,-0.00369 -0.0027,-0.9503031 -0.0054,-1.9005727 -0.0081,-2.8508088 0.942988,-0.00457 1.885997,-0.00911 2.829028,-0.013609 -0.0026,0.9411638 -0.0052,1.8823609 -0.0078,2.8235911 -0.246369,-0.00115 -0.492736,-0.0023 -0.739102,-0.00345 m -0.567775,-5.15227858 c 0.835185,-0.001468 1.670369,-0.002947 2.505553,-0.004439 2.58e-4,0.94397726 5.16e-4,1.88793923 7.73e-4,2.83188593 -0.945409,-0.00172 -1.890819,-0.00346 -2.836228,-0.00521 1.64e-4,-0.6081676 3.29e-4,-1.2163415 4.94e-4,-1.82452183 m -18.103173,0.0424128 c -0.340846,-3.5882e-4 -0.68169,-7.1701e-4 -1.022532,-0.001075 -0.0017,-0.94666051 -0.0034,-1.89331621 -0.0051,-2.83996717 0.943977,-9.842e-4 1.887971,-0.00196 2.831982,-0.00294 -0.0017,0.94469193 -0.0033,1.8893886 -0.0049,2.83409 -0.156379,-1.5934e-4 -0.312758,-3.1855e-4 -0.469137,-4.7764e-4 M 22.83892,-12.766113 c 0.765578,0.0033 1.531144,0.0066 2.296699,0.0098 0.0027,0.949724 0.0055,1.899443 0.0082,2.8491579 -0.942959,0.00405 -1.885937,0.00809 -2.828932,0.012133 0.0019,-0.6757592 0.0038,-1.3515192 0.0057,-2.0272822 m 6.817367,14.7665526 c -0.218635,-3.4e-5 -0.437269,-6.77e-5 -0.655903,-1.01e-4 -0.0018,-0.9458106 -0.0036,-1.89161341 -0.0054,-2.83740829 0.943864,-1.2825e-4 1.88773,-2.4859e-4 2.831599,-3.6105e-4 -0.0018,0.94555417 -0.0036,1.89111624 -0.0054,2.83668614 -0.278644,-2.84e-5 -0.557288,-5.61e-5 -0.835931,-8.32e-5 m 5.012615,4.3712703 c 0.652304,-0.00196 1.304606,-0.00391 1.956905,-0.00586 0.0014,0.94284 0.0027,1.8856928 0.0041,2.8285586 -0.944316,-0.0028 -1.888636,-0.0056 -2.832961,-0.0084 0.0011,-0.7929586 0.0022,-1.585908 0.0034,-2.3788485 m -8.082728,1.1906256 c -0.08428,1.607e-4 -0.168567,3.213e-4 -0.25285,4.818e-4 -0.0035,-0.9438588 -0.007,-1.8877302 -0.01048,-2.831614 0.942188,0.00178 1.88439,0.00355 2.826606,0.00531 -0.0035,0.9474246 -0.0069,1.8948367 -0.01031,2.8422365 -0.413854,7.557e-4 -0.827706,0.00151 -1.241555,0.00226 M 32.717797,8.11277 c 0.712532,0.00142 1.42507,0.00282 2.137614,0.00421 -2.2e-5,0.9475087 -3.4e-5,1.8949899 -3.7e-5,2.8424429 -0.945669,0.0018 -1.891329,0.0035 -2.836979,0.0053 1.3e-5,-0.728104 3.2e-5,-1.4562243 5.7e-5,-2.184361 M 25.242637,-4.9682512 c -0.111428,-3.605e-4 -0.222856,-7.206e-4 -0.334284,-0.00108 -0.0021,-0.9487263 -0.0041,-1.8974264 -0.0061,-2.8461003 0.943637,-0.00301 1.887291,-0.00599 2.830963,-0.00894 -0.002,0.9427116 -0.004,1.8854494 -0.0059,2.8282132 -0.385947,-0.00118 -0.771891,-0.00236 -1.157832,-0.00353 m 41.752586,6.4181957 h -69.53125 m 33.657422,3.687297 v -11.71875 m 0,22.1576251 v -30.46875 M -49.283803,-1.4184999 H 117.9037 M 84.41526,1.4184999 h -98.4375"
       sodipodi:type="rect" />
    <path
       style="fill:#5fd35f;stroke:none;stroke-width:0.022164;stroke-linecap:round;stroke-linejoin:bevel;paint-order:stroke fill markers;stop-color:#000000;filter:url(#filter1345)"
       id="path1317"
       width="2.8369999"
       height="2.8369999"
       x="-1.4184998"
       y="32.448166"
       inkscape:path-effect="#path-effect1327"
       d="m 4.5660193,46.959851 c 0.7313995,-0.0024 1.4627831,-0.0049 2.1941508,-0.0073 0.00413,0.942519 0.00824,1.885058 0.012318,2.827616 -0.9415872,-0.0031 -1.8832011,-0.0062 -2.8248415,-0.0093 0.00304,-0.716132 0.00606,-1.432254 0.00907,-2.148365 M 5.1615206,27.824211 c -0.090663,-1.51e-4 -0.1813247,-3.03e-4 -0.2719868,-4.55e-4 -0.00188,-0.947253 -0.00374,-1.894495 -0.00558,-2.841725 0.9438252,-0.0016 1.8876697,-0.0031 2.8315335,-0.0047 -0.0018,0.944126 -0.00359,1.888262 -0.00535,2.83241 -0.4066085,-6.52e-4 -0.8132135,-0.0013 -1.2198149,-0.002 m -10.873606,12.609066 c 0.6290917,-0.0011 1.2581945,-0.0022 1.8873082,-0.0033 -0.00407,0.944037 -0.00811,1.888071 -0.012128,2.832101 -0.9496849,-0.0016 -1.8993454,-0.0033 -2.8489815,-0.0049 -0.0034,-0.811577 -0.00678,-1.623156 -0.010148,-2.434737 m 10.9800329,5.770096 c 0.00403,-0.878241 0.00804,-1.756493 0.012028,-2.634756 0.9499499,0.0032 1.8998791,0.0063 2.8497878,0.0094 0.00424,0.948794 0.00846,1.897574 0.012665,2.846342 -0.5583078,0.0018 -1.1166228,0.0037 -1.6749449,0.0055 M -8.7153049,26.295798 c 0.6610869,-0.0016 1.3221901,-0.0033 1.9833093,-0.0049 -0.0028,0.94335 -0.00556,1.886707 -0.0083,2.830073 -0.9483992,-0.0023 -1.8967656,-0.0046 -2.8450993,-0.0069 -0.0022,-0.780802 -0.00437,-1.561598 -0.00652,-2.34239 m 9.4342833,7.478323 c -0.0689522,1.93e-4 -0.13790419,3.86e-4 -0.20685604,5.79e-4 -0.00295,-0.943012 -0.00587,-1.886061 -0.008757,-2.829146 0.94277877,0.0026 1.88558876,0.0051 2.82842996,0.0076 -0.00283,0.948176 -0.00562,1.896316 -0.00838,2.84442 -0.4288454,0.0011 -0.8576845,0.0022 -1.2865172,0.0033 m -6.1646517,4.968231 c 0.8883358,3.5e-5 1.7766982,6.7e-5 2.665087,9.5e-5 -0.00271,0.945696 -0.0054,1.891389 -0.00805,2.837078 -0.9483209,2.2e-5 -1.8966121,4.1e-5 -2.8448735,5.6e-5 -0.00151,-0.551046 -0.00301,-1.102092 -0.00451,-1.65314 M 5.2432014,28.234375 c -0.195423,-1.91e-4 -0.3908469,-3.82e-4 -0.5862718,-5.71e-4 0.00191,-0.946582 0.0038,-1.893145 0.00567,-2.839689 0.9475341,-8.77e-4 1.8950462,-0.0017 2.8425364,-0.0026 0.00182,0.944828 0.00363,1.889675 0.0054,2.834541 -0.2999472,-2.54e-4 -0.5998966,-5.06e-4 -0.8998482,-7.57e-4 m -13.673595,-2.202923 c 0.7784549,0.0015 1.5568966,0.0029 2.3353253,0.0043 0.00252,0.947407 0.00501,1.894795 0.00749,2.842162 -0.9431885,0.0017 -1.8863964,0.0034 -2.8296235,0.005 0.00172,-0.664468 0.00342,-1.328946 0.00512,-1.993433 m 10.2920452,1.334396 c -0.2563565,0.0012 -0.5127113,0.0024 -0.7690646,0.0035 -0.00187,-0.941316 -0.00372,-1.882647 -0.00555,-2.823993 0.9438372,0.0043 1.8876957,0.0086 2.8315755,0.01292 -0.00179,0.949957 -0.00355,1.8999 -0.0053,2.849827 -0.2409302,0.0011 -0.4818591,0.0022 -0.7227866,0.0032 m -9.3814027,-2.394285 c 0.6885891,9.9e-4 1.377165,0.002 2.0657279,0.003 0.00462,0.947021 0.00921,1.894033 0.01378,2.841036 -0.9410982,0.0013 -1.8822213,0.0027 -2.8233691,0.004 0.00362,-0.755728 0.00722,-1.511462 0.010801,-2.267201 m -4.7358293,-3.954701 c -0.06478,1.71e-4 -0.129563,3.41e-4 -0.194344,5.11e-4 0.0045,-0.943195 0.009,-1.886411 0.01343,-2.829649 0.950119,0.0024 1.9002117,0.0048 2.8502794,0.0072 0.0044,0.948053 0.00878,1.896084 0.013127,2.844094 -0.429258,0.0011 -0.8585213,0.0021 -1.2877898,0.0032 m 0.3671425,16.590738 c 0.6669006,6.22e-4 1.3337961,0.0013 2.0006864,0.0019 0.00357,0.946582 0.00713,1.893184 0.010674,2.839807 -0.9421189,9.56e-4 -1.8842482,0.0019 -2.8263878,0.0029 0.0029,-0.776797 0.00579,-1.553581 0.00868,-2.330351 m 7.8131645,0.0376 c -0.058544,2.84e-4 -0.1170879,5.69e-4 -0.1756318,8.54e-4 -0.00362,-0.94105 -0.00723,-1.882103 -0.010831,-2.82316 0.9420652,0.0046 1.88413917,0.0092 2.82622176,0.01382 -0.003584,0.950269 -0.007159,1.900534 -0.0107262,2.850796 -0.43966479,0.0021 -0.87932773,0.0043 -1.31898885,0.0064 M 0.39410603,23.24892 c 0.61526437,-0.0017 1.23052247,-0.0034 1.84577447,-0.005 5.349e-4,0.943098 0.00106,1.88621 0.00156,2.829335 -0.9451611,-0.0025 -1.89033684,-0.0051 -2.83552723,-0.0076 4.1653e-4,-0.829295 8.2186e-4,-1.65858 0.001216,-2.487855 M -1.3208604,36.698047 c -0.00153,-0.906249 -0.00303,-1.812504 -0.00453,-2.718765 0.94411537,0.0026 1.88825005,0.0053 2.832404,0.0079 -0.00151,0.948302 -0.00301,1.896598 -0.00448,2.844887 -0.53402619,0.0015 -1.06804633,0.003 -1.60206036,0.0044 M -2.9535365,29.53803 c 0.8600702,0.0018 1.7201316,0.0035 2.58018437,0.0053 0.001828,0.947574 0.003645,1.895121 0.005452,2.84264 -0.94386,0.0019 -1.8877305,0.0037 -2.8316114,0.0055 0.0011,-0.582497 0.0022,-1.165005 0.00329,-1.747523 m 1.2272928,-2.487601 c -0.3893189,9.28e-4 -0.7786373,0.0019 -1.1679553,0.0028 2.973e-4,-0.943412 5.97e-4,-1.886823 8.988e-4,-2.830232 0.9459685,0.0023 1.8919393,0.0045 2.83791234,0.0068 3.0641e-4,0.947927 6.1509e-4,1.895856 9.2605e-4,2.843787 -0.10685777,2.56e-4 -0.21371551,5.11e-4 -0.32057323,7.67e-4 M 5.1128556,20.905206 c 0.8458353,7.6e-4 1.6916799,0.0015 2.5375339,0.0022 5.382e-4,0.946494 0.00109,1.892976 0.00165,2.839446 -0.945105,8.03e-4 -1.8901982,0.0016 -2.8352797,0.0024 3.691e-4,-0.596136 7.43e-4,-1.192277 0.00112,-1.788422 M -14.551316,43.8203 c -0.224482,-5.02e-4 -0.448965,-0.001 -0.673448,-0.0015 0.0032,-0.947769 0.0064,-1.895531 0.0096,-2.843287 0.948874,-0.0021 1.897746,-0.0042 2.846616,-0.0062 0.0032,0.94359 0.0064,1.887186 0.0096,2.830789 -0.270168,-5.91e-4 -0.540337,-0.0012 -0.810507,-0.0018 m 7.6768177,-14.592309 c 0.7487096,-8.77e-4 1.4974135,-0.0018 2.2461116,-0.0026 0.00124,0.944554 0.00247,1.889107 0.0037,2.833657 -0.9444438,-0.0011 -1.8888969,-0.0022 -2.8333591,-0.0034 8.843e-4,-0.695106 0.00176,-1.390214 0.00264,-2.085324 m 10.1139365,9.008683 c -0.2513629,-0.0012 -0.5027243,-0.0025 -0.7540841,-0.0037 -0.00272,-0.950303 -0.00542,-1.900573 -0.0081,-2.850809 0.9429878,-0.0046 1.8859971,-0.0091 2.8290278,-0.01361 -0.00264,0.941164 -0.00525,1.882361 -0.00784,2.823591 -0.2463687,-0.0012 -0.4927359,-0.0023 -0.7391017,-0.0035 M 4.7925404,33.756742 c 0.8351845,-0.0015 1.6703688,-0.0029 2.5055529,-0.0044 2.58e-4,0.943977 5.157e-4,1.887939 7.731e-4,2.831886 -0.9454092,-0.0017 -1.8908187,-0.0035 -2.8362285,-0.0052 1.649e-4,-0.608168 3.296e-4,-1.216342 4.942e-4,-1.824522 m -18.1031721,0.04241 c -0.340847,-3.59e-4 -0.681691,-7.17e-4 -1.022533,-0.0011 -0.0017,-0.94666 -0.0034,-1.893316 -0.0051,-2.839967 0.943977,-9.84e-4 1.887971,-0.002 2.831982,-0.0029 -0.0017,0.944692 -0.0033,1.889388 -0.0049,2.83409 -0.156379,-1.6e-4 -0.312758,-3.19e-4 -0.469136,-4.78e-4 m 1.282017,-13.685953 c 0.765578,0.0033 1.5311447,0.0066 2.2966997,0.0098 0.00274,0.949724 0.00547,1.899443 0.00817,2.849158 -0.9429598,0.004 -1.8859368,0.0081 -2.8289318,0.01213 0.0019,-0.675759 0.0038,-1.35152 0.0057,-2.027282 m 6.817367,14.766552 c -0.2186343,-3.4e-5 -0.4372684,-6.7e-5 -0.6559023,-1.01e-4 -0.00181,-0.94581 -0.00361,-1.891613 -0.00542,-2.837408 0.9438634,-1.28e-4 1.8877296,-2.48e-4 2.8315985,-3.61e-4 -0.0018,0.945554 -0.00359,1.891116 -0.00539,2.836686 -0.278644,-2.8e-5 -0.5572877,-5.6e-5 -0.8359313,-8.3e-5 m 5.0126158,4.37127 c 0.6523039,-0.002 1.3046055,-0.0039 1.9569049,-0.0059 0.00136,0.94284 0.00272,1.885693 0.00407,2.828559 -0.9443157,-0.0028 -1.888636,-0.0056 -2.83296096,-0.0084 0.001122,-0.792958 0.00224,-1.585907 0.003356,-2.378848 m -8.0827275,1.190626 c -0.084283,1.61e-4 -0.1685667,3.21e-4 -0.2528498,4.82e-4 -0.00351,-0.943859 -0.007,-1.88773 -0.010478,-2.831614 0.942188,0.0018 1.8843899,0.0036 2.8266057,0.0053 -0.00345,0.947424 -0.00689,1.894837 -0.010311,2.842236 -0.4138543,7.56e-4 -0.827706,0.0015 -1.2415551,0.0023 m 4.8782159,-0.7463 c 0.71253263,0.0014 1.42507077,0.0028 2.13761445,0.0042 -2.217e-5,0.947509 -3.458e-5,1.89499 -3.723e-5,2.842443 -0.94566928,0.0018 -1.8913288,0.0035 -2.83697852,0.0053 1.3e-5,-0.728104 3.18e-5,-1.456224 5.64e-5,-2.184361 M -8.6240283,28.898415 c -0.1114285,-3.61e-4 -0.2228568,-7.21e-4 -0.3342848,-0.0011 -0.00206,-0.948726 -0.00411,-1.897426 -0.00614,-2.8461 0.9436369,-0.003 1.887291,-0.006 2.8309624,-0.0089 -0.002,0.942711 -0.00397,1.885449 -0.00593,2.828213 -0.3859467,-0.0012 -0.7718905,-0.0024 -1.1578316,-0.0035 m 41.7525856,6.418196 h -69.53125 m 33.6574222,3.687297 v -11.71875 m 0,22.157625 V 18.942588 M -83.150469,32.448166 h 167.1875 m -33.488437,2.837 h -98.4375"
       sodipodi:type="rect" />
    <path
       style="fill:#5fd35f;stroke:none;stroke-width:0.022164;stroke-linecap:round;stroke-linejoin:bevel;paint-order:stroke fill markers;stop-color:#000000;filter:url(#filter1341)"
       id="path1319"
       width="2.8369999"
       height="2.8369999"
       x="32.448166"
       y="32.448166"
       inkscape:path-effect="#path-effect1331"
       d="m 38.432685,46.959851 c 0.7314,-0.0024 1.462783,-0.0049 2.194151,-0.0073 0.0041,0.942519 0.0082,1.885058 0.01232,2.827616 -0.941587,-0.0031 -1.883201,-0.0062 -2.824841,-0.0093 0.003,-0.716132 0.0061,-1.432254 0.0091,-2.148365 m 1.204801,-19.798317 c -0.09066,-1.51e-4 -0.181324,-3.03e-4 -0.271986,-4.55e-4 -0.0019,-0.947253 -0.0037,-1.894495 -0.0056,-2.841725 0.943825,-0.0016 1.88767,-0.0031 2.831534,-0.0047 -0.0018,0.944126 -0.0036,1.888262 -0.0054,2.83241 -0.406609,-6.52e-4 -0.813214,-0.0013 -1.219815,-0.002 M 29.483379,40.416899 c 0.629092,-0.0011 1.258194,-0.0022 1.887308,-0.0033 -0.0041,0.944037 -0.0081,1.888071 -0.01213,2.832101 -0.949685,-0.0016 -1.899346,-0.0033 -2.848982,-0.0049 -0.0034,-0.811577 -0.0068,-1.623156 -0.01015,-2.434737 m 10.980033,5.770096 c 0.004,-0.878241 0.008,-1.756493 0.01203,-2.634756 0.94995,0.0032 1.899879,0.0063 2.849788,0.0094 0.0042,0.948794 0.0085,1.897574 0.01267,2.846342 -0.558308,0.0018 -1.116623,0.0037 -1.674945,0.0055 M 25.151361,26.295798 c 0.661087,-0.0016 1.32219,-0.0033 1.983309,-0.0049 -0.0028,0.94335 -0.0056,1.886707 -0.0083,2.830073 -0.948399,-0.0023 -1.896765,-0.0046 -2.845099,-0.0069 -0.0022,-0.780802 -0.0044,-1.561598 -0.0065,-2.34239 m 9.434283,7.478323 c -0.06895,1.93e-4 -0.137904,3.86e-4 -0.206856,5.79e-4 -0.0029,-0.943012 -0.0059,-1.886061 -0.0088,-2.829146 0.942779,0.0026 1.885589,0.0051 2.82843,0.0076 -0.0028,0.948176 -0.0056,1.896316 -0.0084,2.84442 -0.428845,0.0011 -0.857684,0.0022 -1.286517,0.0033 m -6.164652,4.968231 c 0.888336,3.5e-5 1.776698,6.7e-5 2.665087,9.5e-5 -0.0027,0.945696 -0.0054,1.891389 -0.0081,2.837078 -0.948321,2.2e-5 -1.896612,4.1e-5 -2.844874,5.6e-5 -0.0015,-0.551046 -0.003,-1.102092 -0.0045,-1.65314 M 39.109867,28.234375 c -0.195423,-1.91e-4 -0.390847,-3.82e-4 -0.586272,-5.71e-4 0.0019,-0.946582 0.0038,-1.893145 0.0057,-2.839689 0.947534,-8.77e-4 1.895046,-0.0017 2.842536,-0.0026 0.0018,0.944828 0.0036,1.889675 0.0054,2.834541 -0.299947,-2.54e-4 -0.599897,-5.06e-4 -0.899848,-7.57e-4 M 26.803762,26.022403 c 0.778454,0.0015 1.556896,0.0029 2.335325,0.0043 0.0025,0.947407 0.005,1.894795 0.0075,2.842162 -0.943188,0.0017 -1.886396,0.0034 -2.829623,0.005 0.0017,-0.664468 0.0034,-1.328946 0.0051,-1.993433 m 10.292045,1.334396 c -0.256357,0.0012 -0.512711,0.0024 -0.769065,0.0035 -0.0019,-0.941316 -0.0037,-1.882647 -0.0056,-2.823993 0.943837,0.0043 1.887695,0.0086 2.831575,0.01292 -0.0018,0.949957 -0.0036,1.8999 -0.0053,2.849827 -0.240931,0.0011 -0.481859,0.0022 -0.722787,0.0032 m -9.381403,-2.394285 c 0.688589,9.9e-4 1.377165,0.002 2.065728,0.003 0.0046,0.947021 0.0092,1.894033 0.01378,2.841036 -0.941098,0.0013 -1.882222,0.0027 -2.823369,0.004 0.0036,-0.755728 0.0072,-1.511462 0.0108,-2.267201 m -4.735829,-3.954701 c -0.06478,1.71e-4 -0.129563,3.41e-4 -0.194344,5.11e-4 0.0045,-0.943195 0.009,-1.886411 0.01343,-2.829649 0.950118,0.0024 1.900211,0.0048 2.850279,0.0072 0.0044,0.948053 0.0088,1.896084 0.01313,2.844094 -0.429258,0.0011 -0.858521,0.0021 -1.28779,0.0032 m 0.367143,16.590738 c 0.6669,6.22e-4 1.333796,0.0013 2.000686,0.0019 0.0036,0.946582 0.0071,1.893184 0.01067,2.839807 -0.942119,9.56e-4 -1.884248,0.0019 -2.826388,0.0029 0.0029,-0.776797 0.0058,-1.553581 0.0087,-2.330351 m 7.813164,0.0376 c -0.05854,2.84e-4 -0.117088,5.69e-4 -0.175632,8.54e-4 -0.0036,-0.94105 -0.0072,-1.882103 -0.01083,-2.82316 0.942065,0.0046 1.884139,0.0092 2.826221,0.01382 -0.0036,0.950269 -0.0072,1.900534 -0.01073,2.850796 -0.439665,0.0021 -0.879328,0.0043 -1.318989,0.0064 M 34.260772,23.24892 c 0.615264,-0.0017 1.230522,-0.0034 1.845774,-0.005 5.35e-4,0.943098 0.0011,1.88621 0.0016,2.829335 -0.945161,-0.0025 -1.890337,-0.0051 -2.835527,-0.0076 4.16e-4,-0.829295 8.21e-4,-1.65858 0.0012,-2.487855 m -0.727991,13.120258 c -0.0015,-0.906249 -0.003,-1.812504 -0.0045,-2.718765 0.944115,0.0026 1.88825,0.0053 2.832404,0.0079 -0.0015,0.948302 -0.003,1.896598 -0.0045,2.844887 -0.534026,0.0015 -1.068046,0.003 -1.60206,0.0044 M 30.913129,29.53803 c 0.86007,0.0018 1.720132,0.0035 2.580185,0.0053 0.0018,0.947574 0.0036,1.895121 0.0055,2.84264 -0.94386,0.0019 -1.88773,0.0037 -2.831611,0.0055 0.0011,-0.582497 0.0022,-1.165005 0.0033,-1.747523 m 1.227293,-2.487601 c -0.389319,9.28e-4 -0.778638,0.0019 -1.167956,0.0028 2.98e-4,-0.943412 5.97e-4,-1.886823 8.99e-4,-2.830232 0.945969,0.0023 1.891939,0.0045 2.837912,0.0068 3.07e-4,0.947927 6.16e-4,1.895856 9.27e-4,2.843787 -0.106858,2.56e-4 -0.213716,5.11e-4 -0.320574,7.67e-4 m 5.730572,-7.274962 c 0.845836,7.6e-4 1.69168,0.0015 2.537534,0.0022 5.38e-4,0.946494 0.0011,1.892976 0.0016,2.839446 -0.945105,8.03e-4 -1.890198,0.0016 -2.83528,0.0024 3.69e-4,-0.596136 7.43e-4,-1.192277 0.0011,-1.788422 M 19.31535,43.8203 c -0.224483,-5.02e-4 -0.448965,-0.001 -0.673448,-0.0015 0.0032,-0.947769 0.0064,-1.895531 0.0096,-2.843287 0.948875,-0.0021 1.897747,-0.0042 2.846616,-0.0062 0.0032,0.94359 0.0064,1.887186 0.0096,2.830789 -0.270169,-5.91e-4 -0.540338,-0.0012 -0.810507,-0.0018 M 28.37406,29.205967 c 0.74871,-8.77e-4 1.497414,-0.0018 2.246112,-0.0026 0.0012,0.944554 0.0025,1.889107 0.0037,2.833657 -0.944444,-0.0011 -1.888897,-0.0022 -2.833359,-0.0034 8.84e-4,-0.695106 0.0018,-1.390214 0.0026,-2.085324 m 10.113937,9.008683 c -0.251363,-0.0012 -0.502725,-0.0025 -0.754085,-0.0037 -0.0027,-0.950303 -0.0054,-1.900573 -0.0081,-2.850809 0.942988,-0.0046 1.885997,-0.0091 2.829028,-0.01361 -0.0026,0.941164 -0.0052,1.882361 -0.0078,2.823591 -0.246369,-0.0012 -0.492736,-0.0023 -0.739102,-0.0035 m -0.567775,-5.152279 c 0.835185,-0.0015 1.670369,-0.0029 2.505553,-0.0044 2.58e-4,0.943977 5.16e-4,1.887939 7.73e-4,2.831886 -0.945409,-0.0017 -1.890819,-0.0035 -2.836228,-0.0052 1.64e-4,-0.608168 3.29e-4,-1.216342 4.94e-4,-1.824522 m -18.103173,0.04241 c -0.340846,-3.59e-4 -0.68169,-7.17e-4 -1.022532,-0.0011 -0.0017,-0.94666 -0.0034,-1.893316 -0.0051,-2.839967 0.943977,-9.84e-4 1.887971,-0.002 2.831982,-0.0029 -0.0017,0.944692 -0.0033,1.889388 -0.0049,2.83409 -0.156379,-1.6e-4 -0.312758,-3.19e-4 -0.469137,-4.78e-4 M 22.83892,21.100553 c 0.765578,0.0033 1.531144,0.0066 2.296699,0.0098 0.0027,0.949724 0.0055,1.899443 0.0082,2.849158 -0.942959,0.004 -1.885937,0.0081 -2.828932,0.01213 0.0019,-0.675759 0.0038,-1.35152 0.0057,-2.027282 m 6.817367,14.766552 c -0.218635,-3.4e-5 -0.437269,-6.7e-5 -0.655903,-1.01e-4 -0.0018,-0.94581 -0.0036,-1.891613 -0.0054,-2.837408 0.943864,-1.28e-4 1.88773,-2.48e-4 2.831599,-3.61e-4 -0.0018,0.945554 -0.0036,1.891116 -0.0054,2.836686 -0.278644,-2.8e-5 -0.557288,-5.6e-5 -0.835931,-8.3e-5 m 5.012615,4.37127 c 0.652304,-0.002 1.304606,-0.0039 1.956905,-0.0059 0.0014,0.94284 0.0027,1.885693 0.0041,2.828559 -0.944316,-0.0028 -1.888636,-0.0056 -2.832961,-0.0084 0.0011,-0.792958 0.0022,-1.585907 0.0034,-2.378848 m -8.082728,1.190626 c -0.08428,1.61e-4 -0.168567,3.21e-4 -0.25285,4.82e-4 -0.0035,-0.943859 -0.007,-1.88773 -0.01048,-2.831614 0.942188,0.0018 1.88439,0.0036 2.826606,0.0053 -0.0035,0.947424 -0.0069,1.894837 -0.01031,2.842236 -0.413854,7.56e-4 -0.827706,0.0015 -1.241555,0.0023 m 4.878216,-0.7463 c 0.712532,0.0014 1.42507,0.0028 2.137614,0.0042 -2.2e-5,0.947509 -3.4e-5,1.89499 -3.7e-5,2.842443 -0.945669,0.0018 -1.891329,0.0035 -2.836979,0.0053 1.3e-5,-0.728104 3.2e-5,-1.456224 5.7e-5,-2.184361 M 25.242637,28.898415 c -0.111428,-3.61e-4 -0.222856,-7.21e-4 -0.334284,-0.0011 -0.0021,-0.948726 -0.0041,-1.897426 -0.0061,-2.8461 0.943637,-0.003 1.887291,-0.006 2.830963,-0.0089 -0.002,0.942711 -0.004,1.885449 -0.0059,2.828213 -0.385947,-0.0012 -0.771891,-0.0024 -1.157832,-0.0035 m 41.752586,6.418196 h -69.53125 m 33.657422,3.687297 v -11.71875 m 0,22.157625 V 18.942588 M -49.283803,32.448166 H 117.9037 m -33.48844,2.837 h -98.4375"
       sodipodi:type="rect" />
  </g>
</svg>
